<mxfile host="www.draw.io" modified="2023-04-05T19:10:01.291Z" agent="Mozilla/5.0 (Windows NT 10.0; Win64; x64) AppleWebKit/537.36 (KHTML, like Gecko) Chrome/111.0.0.0 Safari/537.36" etag="XLsAvNmFTg2LzRr1ijp1" version="21.1.4" type="device">
  <diagram name="Страница 1" id="NzNe0ZoZgYX5Fp__9Vss">
    <mxGraphModel dx="1434" dy="796" grid="0" gridSize="10" guides="1" tooltips="1" connect="1" arrows="1" fold="1" page="1" pageScale="1" pageWidth="827" pageHeight="1169" math="0" shadow="0">
      <root>
        <mxCell id="0" />
        <mxCell id="1" parent="0" />
        <mxCell id="YYnpD3Vnh-vj3eKZaliB-47" value="" style="rounded=0;whiteSpace=wrap;html=1;fillColor=none;" parent="1" vertex="1">
          <mxGeometry x="220" y="10" width="410" height="490" as="geometry" />
        </mxCell>
        <mxCell id="YYnpD3Vnh-vj3eKZaliB-32" style="rounded=0;orthogonalLoop=1;jettySize=auto;html=1;" parent="1" source="YYnpD3Vnh-vj3eKZaliB-1" target="YYnpD3Vnh-vj3eKZaliB-11" edge="1">
          <mxGeometry relative="1" as="geometry" />
        </mxCell>
        <mxCell id="YYnpD3Vnh-vj3eKZaliB-33" style="rounded=0;orthogonalLoop=1;jettySize=auto;html=1;" parent="1" source="YYnpD3Vnh-vj3eKZaliB-1" target="YYnpD3Vnh-vj3eKZaliB-10" edge="1">
          <mxGeometry relative="1" as="geometry" />
        </mxCell>
        <mxCell id="YYnpD3Vnh-vj3eKZaliB-34" style="rounded=0;orthogonalLoop=1;jettySize=auto;html=1;entryX=0;entryY=0.5;entryDx=0;entryDy=0;" parent="1" source="YYnpD3Vnh-vj3eKZaliB-1" target="YYnpD3Vnh-vj3eKZaliB-12" edge="1">
          <mxGeometry relative="1" as="geometry" />
        </mxCell>
        <mxCell id="YYnpD3Vnh-vj3eKZaliB-35" style="rounded=0;orthogonalLoop=1;jettySize=auto;html=1;entryX=0.213;entryY=0.117;entryDx=0;entryDy=0;entryPerimeter=0;" parent="1" source="YYnpD3Vnh-vj3eKZaliB-1" target="YYnpD3Vnh-vj3eKZaliB-9" edge="1">
          <mxGeometry relative="1" as="geometry" />
        </mxCell>
        <mxCell id="YYnpD3Vnh-vj3eKZaliB-36" style="rounded=0;orthogonalLoop=1;jettySize=auto;html=1;" parent="1" source="YYnpD3Vnh-vj3eKZaliB-1" target="YYnpD3Vnh-vj3eKZaliB-7" edge="1">
          <mxGeometry relative="1" as="geometry" />
        </mxCell>
        <mxCell id="YYnpD3Vnh-vj3eKZaliB-1" value="&#xa;&lt;span style=&quot;font-size:14.0pt;line-height:150%;&#xa;font-family:&amp;quot;Times New Roman&amp;quot;,serif;mso-fareast-font-family:Calibri;mso-fareast-theme-font:&#xa;minor-latin;mso-bidi-theme-font:minor-bidi;mso-ansi-language:RU;mso-fareast-language:&#xa;EN-US;mso-bidi-language:AR-SA&quot;&gt;Гость&lt;/span&gt;&#xa;&#xa;&#xa;&#xa;" style="shape=umlActor;verticalLabelPosition=bottom;verticalAlign=top;html=1;outlineConnect=0;" parent="1" vertex="1">
          <mxGeometry x="90" y="40" width="30" height="60" as="geometry" />
        </mxCell>
        <mxCell id="YYnpD3Vnh-vj3eKZaliB-38" style="edgeStyle=orthogonalEdgeStyle;rounded=0;orthogonalLoop=1;jettySize=auto;html=1;" parent="1" source="YYnpD3Vnh-vj3eKZaliB-3" target="YYnpD3Vnh-vj3eKZaliB-1" edge="1">
          <mxGeometry relative="1" as="geometry" />
        </mxCell>
        <mxCell id="YYnpD3Vnh-vj3eKZaliB-39" style="rounded=0;orthogonalLoop=1;jettySize=auto;html=1;entryX=0;entryY=0.5;entryDx=0;entryDy=0;" parent="1" source="YYnpD3Vnh-vj3eKZaliB-3" target="YYnpD3Vnh-vj3eKZaliB-15" edge="1">
          <mxGeometry relative="1" as="geometry" />
        </mxCell>
        <mxCell id="YYnpD3Vnh-vj3eKZaliB-40" style="rounded=0;orthogonalLoop=1;jettySize=auto;html=1;entryX=0;entryY=0.5;entryDx=0;entryDy=0;" parent="1" source="YYnpD3Vnh-vj3eKZaliB-3" target="YYnpD3Vnh-vj3eKZaliB-13" edge="1">
          <mxGeometry relative="1" as="geometry" />
        </mxCell>
        <mxCell id="YYnpD3Vnh-vj3eKZaliB-41" style="rounded=0;orthogonalLoop=1;jettySize=auto;html=1;" parent="1" source="YYnpD3Vnh-vj3eKZaliB-3" target="YYnpD3Vnh-vj3eKZaliB-20" edge="1">
          <mxGeometry relative="1" as="geometry" />
        </mxCell>
        <mxCell id="YYnpD3Vnh-vj3eKZaliB-42" style="rounded=0;orthogonalLoop=1;jettySize=auto;html=1;entryX=-0.02;entryY=0.407;entryDx=0;entryDy=0;entryPerimeter=0;" parent="1" source="YYnpD3Vnh-vj3eKZaliB-3" target="YYnpD3Vnh-vj3eKZaliB-14" edge="1">
          <mxGeometry relative="1" as="geometry" />
        </mxCell>
        <mxCell id="YYnpD3Vnh-vj3eKZaliB-43" style="rounded=0;orthogonalLoop=1;jettySize=auto;html=1;entryX=0.011;entryY=0.307;entryDx=0;entryDy=0;entryPerimeter=0;" parent="1" source="YYnpD3Vnh-vj3eKZaliB-3" target="YYnpD3Vnh-vj3eKZaliB-16" edge="1">
          <mxGeometry relative="1" as="geometry" />
        </mxCell>
        <mxCell id="YYnpD3Vnh-vj3eKZaliB-3" value="&#xa;&lt;span style=&quot;font-size:14.0pt;line-height:150%;&#xa;font-family:&amp;quot;Times New Roman&amp;quot;,serif;mso-fareast-font-family:Calibri;mso-fareast-theme-font:&#xa;minor-latin;mso-bidi-theme-font:minor-bidi;mso-ansi-language:RU;mso-fareast-language:&#xa;EN-US;mso-bidi-language:AR-SA&quot;&gt;Пользователь &lt;/span&gt;&#xa;&#xa;&#xa;&#xa;" style="shape=umlActor;verticalLabelPosition=bottom;verticalAlign=top;html=1;outlineConnect=0;" parent="1" vertex="1">
          <mxGeometry x="90" y="190" width="30" height="60" as="geometry" />
        </mxCell>
        <mxCell id="YYnpD3Vnh-vj3eKZaliB-29" style="rounded=0;orthogonalLoop=1;jettySize=auto;html=1;entryX=0;entryY=0.5;entryDx=0;entryDy=0;" parent="1" source="YYnpD3Vnh-vj3eKZaliB-4" target="YYnpD3Vnh-vj3eKZaliB-21" edge="1">
          <mxGeometry relative="1" as="geometry">
            <mxPoint x="257.57359312880703" y="389.99786437626904" as="targetPoint" />
          </mxGeometry>
        </mxCell>
        <mxCell id="YYnpD3Vnh-vj3eKZaliB-30" style="rounded=0;orthogonalLoop=1;jettySize=auto;html=1;" parent="1" source="YYnpD3Vnh-vj3eKZaliB-4" target="YYnpD3Vnh-vj3eKZaliB-22" edge="1">
          <mxGeometry relative="1" as="geometry">
            <mxPoint x="482.39999999999986" y="397.14" as="targetPoint" />
          </mxGeometry>
        </mxCell>
        <mxCell id="YYnpD3Vnh-vj3eKZaliB-44" style="edgeStyle=orthogonalEdgeStyle;rounded=0;orthogonalLoop=1;jettySize=auto;html=1;" parent="1" source="YYnpD3Vnh-vj3eKZaliB-4" target="YYnpD3Vnh-vj3eKZaliB-3" edge="1">
          <mxGeometry relative="1" as="geometry" />
        </mxCell>
        <mxCell id="YYnpD3Vnh-vj3eKZaliB-4" value="&#xa;&lt;span style=&quot;font-size:14.0pt;line-height:150%;&#xa;font-family:&amp;quot;Times New Roman&amp;quot;,serif;mso-fareast-font-family:Calibri;mso-fareast-theme-font:&#xa;minor-latin;mso-bidi-theme-font:minor-bidi;mso-ansi-language:RU;mso-fareast-language:&#xa;EN-US;mso-bidi-language:AR-SA&quot;&gt;Менеджер&lt;/span&gt;&#xa;&#xa;&#xa;&#xa;" style="shape=umlActor;verticalLabelPosition=bottom;verticalAlign=top;html=1;outlineConnect=0;" parent="1" vertex="1">
          <mxGeometry x="90" y="300" width="30" height="60" as="geometry" />
        </mxCell>
        <mxCell id="YYnpD3Vnh-vj3eKZaliB-26" style="rounded=0;orthogonalLoop=1;jettySize=auto;html=1;" parent="1" source="YYnpD3Vnh-vj3eKZaliB-5" target="YYnpD3Vnh-vj3eKZaliB-24" edge="1">
          <mxGeometry relative="1" as="geometry" />
        </mxCell>
        <mxCell id="YYnpD3Vnh-vj3eKZaliB-27" style="rounded=0;orthogonalLoop=1;jettySize=auto;html=1;entryX=0.106;entryY=0.169;entryDx=0;entryDy=0;entryPerimeter=0;" parent="1" source="YYnpD3Vnh-vj3eKZaliB-5" target="YYnpD3Vnh-vj3eKZaliB-23" edge="1">
          <mxGeometry relative="1" as="geometry" />
        </mxCell>
        <mxCell id="YYnpD3Vnh-vj3eKZaliB-28" style="rounded=0;orthogonalLoop=1;jettySize=auto;html=1;entryX=0.058;entryY=0.317;entryDx=0;entryDy=0;entryPerimeter=0;" parent="1" source="YYnpD3Vnh-vj3eKZaliB-5" target="YYnpD3Vnh-vj3eKZaliB-25" edge="1">
          <mxGeometry relative="1" as="geometry" />
        </mxCell>
        <mxCell id="YYnpD3Vnh-vj3eKZaliB-46" style="edgeStyle=orthogonalEdgeStyle;rounded=0;orthogonalLoop=1;jettySize=auto;html=1;" parent="1" source="YYnpD3Vnh-vj3eKZaliB-5" target="YYnpD3Vnh-vj3eKZaliB-4" edge="1">
          <mxGeometry relative="1" as="geometry" />
        </mxCell>
        <mxCell id="YYnpD3Vnh-vj3eKZaliB-5" value="&#xa;&lt;span style=&quot;font-size:14.0pt;line-height:150%;&#xa;font-family:&amp;quot;Times New Roman&amp;quot;,serif;mso-fareast-font-family:Calibri;mso-fareast-theme-font:&#xa;minor-latin;mso-bidi-theme-font:minor-bidi;mso-ansi-language:RU;mso-fareast-language:&#xa;EN-US;mso-bidi-language:AR-SA&quot;&gt;Администратор&lt;/span&gt;&#xa;&#xa;&#xa;&#xa;" style="shape=umlActor;verticalLabelPosition=bottom;verticalAlign=top;html=1;outlineConnect=0;" parent="1" vertex="1">
          <mxGeometry x="90" y="414.14" width="30" height="60" as="geometry" />
        </mxCell>
        <mxCell id="YYnpD3Vnh-vj3eKZaliB-7" value="просмотр главной страницы сайта" style="ellipse;whiteSpace=wrap;html=1;" parent="1" vertex="1">
          <mxGeometry x="230" y="110" width="120" height="50" as="geometry" />
        </mxCell>
        <mxCell id="YYnpD3Vnh-vj3eKZaliB-9" value="просмотр информации о сайте" style="ellipse;whiteSpace=wrap;html=1;" parent="1" vertex="1">
          <mxGeometry x="360" y="110" width="120" height="50" as="geometry" />
        </mxCell>
        <mxCell id="YYnpD3Vnh-vj3eKZaliB-10" value="регистрация в системе" style="ellipse;whiteSpace=wrap;html=1;" parent="1" vertex="1">
          <mxGeometry x="450" y="30" width="120" height="40" as="geometry" />
        </mxCell>
        <mxCell id="YYnpD3Vnh-vj3eKZaliB-11" value="вход в систему" style="ellipse;whiteSpace=wrap;html=1;" parent="1" vertex="1">
          <mxGeometry x="230" y="10" width="120" height="40" as="geometry" />
        </mxCell>
        <mxCell id="YYnpD3Vnh-vj3eKZaliB-12" value="поиск компонентов" style="ellipse;whiteSpace=wrap;html=1;" parent="1" vertex="1">
          <mxGeometry x="500" y="80" width="120" height="35" as="geometry" />
        </mxCell>
        <mxCell id="YYnpD3Vnh-vj3eKZaliB-13" value="добавление товара в корзину" style="ellipse;whiteSpace=wrap;html=1;" parent="1" vertex="1">
          <mxGeometry x="234" y="160" width="120" height="50" as="geometry" />
        </mxCell>
        <mxCell id="YYnpD3Vnh-vj3eKZaliB-14" value="удаление товара из корзины" style="ellipse;whiteSpace=wrap;html=1;" parent="1" vertex="1">
          <mxGeometry x="370" y="180" width="120" height="40" as="geometry" />
        </mxCell>
        <mxCell id="YYnpD3Vnh-vj3eKZaliB-15" value="изменение количества товаров в корзине" style="ellipse;whiteSpace=wrap;html=1;" parent="1" vertex="1">
          <mxGeometry x="500" y="195" width="120" height="55" as="geometry" />
        </mxCell>
        <mxCell id="YYnpD3Vnh-vj3eKZaliB-16" value="комментарии под товаром" style="ellipse;whiteSpace=wrap;html=1;" parent="1" vertex="1">
          <mxGeometry x="370" y="240" width="120" height="40" as="geometry" />
        </mxCell>
        <mxCell id="YYnpD3Vnh-vj3eKZaliB-17" value="оформить заказ" style="ellipse;whiteSpace=wrap;html=1;" parent="1" vertex="1">
          <mxGeometry x="490" y="285" width="120" height="40" as="geometry" />
        </mxCell>
        <mxCell id="YYnpD3Vnh-vj3eKZaliB-18" value="отменить заказ" style="ellipse;whiteSpace=wrap;html=1;" parent="1" vertex="1">
          <mxGeometry x="360" y="285" width="120" height="40" as="geometry" />
        </mxCell>
        <mxCell id="YYnpD3Vnh-vj3eKZaliB-19" value="просмотреть историю заказов" style="ellipse;whiteSpace=wrap;html=1;" parent="1" vertex="1">
          <mxGeometry x="230" y="285" width="120" height="50" as="geometry" />
        </mxCell>
        <mxCell id="YYnpD3Vnh-vj3eKZaliB-20" value="редактирование профиля" style="ellipse;whiteSpace=wrap;html=1;" parent="1" vertex="1">
          <mxGeometry x="230" y="245" width="120" height="40" as="geometry" />
        </mxCell>
        <mxCell id="YYnpD3Vnh-vj3eKZaliB-21" value="просмотр списка заказов" style="ellipse;whiteSpace=wrap;html=1;" parent="1" vertex="1">
          <mxGeometry x="474" y="335" width="120" height="40" as="geometry" />
        </mxCell>
        <mxCell id="YYnpD3Vnh-vj3eKZaliB-22" value="изменение статуса заказа" style="ellipse;whiteSpace=wrap;html=1;" parent="1" vertex="1">
          <mxGeometry x="350" y="360" width="120" height="40" as="geometry" />
        </mxCell>
        <mxCell id="YYnpD3Vnh-vj3eKZaliB-23" value="просмотр списка пользователей" style="ellipse;whiteSpace=wrap;html=1;" parent="1" vertex="1">
          <mxGeometry x="354" y="430" width="120" height="50" as="geometry" />
        </mxCell>
        <mxCell id="YYnpD3Vnh-vj3eKZaliB-24" value="просмотр списка менеджеров" style="ellipse;whiteSpace=wrap;html=1;" parent="1" vertex="1">
          <mxGeometry x="230" y="450" width="120" height="40" as="geometry" />
        </mxCell>
        <mxCell id="YYnpD3Vnh-vj3eKZaliB-25" value="добавление/изменение данных пользователей" style="ellipse;whiteSpace=wrap;html=1;" parent="1" vertex="1">
          <mxGeometry x="480" y="390" width="120" height="50" as="geometry" />
        </mxCell>
      </root>
    </mxGraphModel>
  </diagram>
</mxfile>
